<?xml version="1.0" encoding="UTF-8" standalone="no"?>
<!-- Created with Inkscape (http://www.inkscape.org/) -->

<svg
   width="210mm"
   height="297mm"
   viewBox="0 0 210 297"
   version="1.1"
   id="svg5"
   sodipodi:docname="PinFieldHospital.svg"
   inkscape:version="1.1 (c68e22c387, 2021-05-23)"
   xmlns:inkscape="http://www.inkscape.org/namespaces/inkscape"
   xmlns:sodipodi="http://sodipodi.sourceforge.net/DTD/sodipodi-0.dtd"
   xmlns="http://www.w3.org/2000/svg"
   xmlns:svg="http://www.w3.org/2000/svg">
  <sodipodi:namedview
     id="namedview7"
     pagecolor="#ffffff"
     bordercolor="#666666"
     borderopacity="1.0"
     inkscape:pageshadow="2"
     inkscape:pageopacity="0.0"
     inkscape:pagecheckerboard="0"
     inkscape:document-units="mm"
     showgrid="true"
     inkscape:zoom="0.52410025"
     inkscape:cx="233.73391"
     inkscape:cy="456.97365"
     inkscape:window-width="1920"
     inkscape:window-height="1017"
     inkscape:window-x="1912"
     inkscape:window-y="-8"
     inkscape:window-maximized="1"
     inkscape:current-layer="layer1">
    <inkscape:grid
       type="xygrid"
       id="grid895" />
  </sodipodi:namedview>
  <defs
     id="defs2" />
  <g
     inkscape:label="Layer 1"
     inkscape:groupmode="layer"
     id="layer1">
    <path
       style="fill:#d35f5f;stroke-width:0.356971"
       d="m 105.62299,289.77604 c -0.78534,-0.36246 -1.7624,-1.04164 -2.17125,-1.50929 C 102.16564,286.79569 21.180953,145.21837 18.837557,140.34437 9.3319667,120.57379 7.5019767,96.516177 13.895557,75.375612 22.212697,47.874738 43.14868,25.353387 70.639814,14.334422 82.74983,9.4804997 94.168757,7.2902677 107.58633,7.2478177 c 7.85181,-0.02484 12.53756,0.395938 19.68122,1.767369 33.42112,6.4161413 61.54969,30.0454213 73.04704,61.3628293 1.75509,4.780637 3.72053,12.497112 4.59162,18.027041 0.81564,5.1779 0.92726,19.866823 0.18852,24.809503 -1.57656,10.54831 -4.55723,20.27969 -8.80619,28.75068 -2.0459,4.07884 -82.35388,144.23101 -83.62231,145.9363 -0.95972,1.29027 -3.27738,2.53352 -4.72293,2.53352 -0.49084,0 -1.53498,-0.29657 -2.32031,-0.65902 z m 10.79368,-141.60937 c 18.61833,-2.84653 34.51153,-17.03314 39.17709,-34.97032 4.13923,-15.913633 -0.20689,-32.1015 -11.83873,-44.095393 -6.95251,-7.168919 -15.58811,-11.891869 -25.81654,-14.119486 -4.32612,-0.942176 -15.66426,-0.942176 -19.990382,0 -7.068953,1.539523 -13.79183,4.472805 -19.37176,8.452151 -3.853865,2.748396 -9.522259,8.571106 -12.010099,12.33705 -15.588017,23.596255 -7.028913,54.749198 18.610985,67.739188 9.512239,4.81921 19.975436,6.37894 31.239436,4.65681 z"
       id="path5079" />
    <path
       style="fill:#d35f5f;stroke-width:0.356971"
       d="m 98.67289,164.00853 c -6.5782,-1.1539 -13.98317,-4.21189 -19.72836,-8.14713 -3.5807,-2.45264 -9.05338,-7.77727 -11.53262,-11.22064 -4.11343,-5.71305 -7.100288,-12.74997 -8.273826,-19.49281 -0.707237,-4.06358 -0.705072,-11.28996 0.0046,-15.3471 1.096735,-6.27 3.406676,-12.09919 6.931906,-17.49286 2.25053,-3.44334 8.16051,-9.61512 11.83272,-12.35688 4.47867,-3.34389 10.90944,-6.36802 17.62554,-8.2886 2.63975,-0.75488 3.54433,-0.81665 11.95853,-0.81665 8.9854,0 9.14879,0.0133 12.67248,1.03506 9.55617,2.77089 16.72646,7.04962 23.23241,13.8635 8.95309,9.37685 13.36951,20.7825 12.8913,33.29254 -0.46922,12.27476 -4.92673,22.3705 -13.7991,31.25333 -6.76897,6.77696 -14.34275,10.96714 -23.93098,13.23978 -4.06519,0.96356 -15.54448,1.23976 -19.88459,0.47846 z"
       id="path5395" />
    <path
       style="fill:#d35f5f;stroke-width:0.399774"
       d="m 93.763807,148.16667 c -3.99978,-0.7259 -9.93841,-2.66032 -14.37921,-4.6838 -10.89365,-4.96375 -20.06501,-13.51002 -25.535768,-23.79535 -3.697769,-6.95199 -5.18482,-13.17236 -5.18482,-21.68818 0,-10.6802 2.563236,-18.88165 8.588537,-27.48029 2.386601,-3.40588 11.341251,-11.94142 14.863711,-14.16803 3.89271,-2.46065 10.10053,-5.24882 15.80467,-7.09848 l 5.01914,-1.62754 h 11.738303 11.7383 l 4.73651,1.49857 c 10.07401,3.18729 16.68946,6.98632 23.69685,13.60828 8.6264,8.15194 13.81884,17.61246 15.45589,28.16035 0.83173,5.35907 0.30227,13.99389 -1.19495,19.48852 -4.31468,15.83425 -17.91579,29.72326 -34.66282,35.3965 -6.58867,2.23198 -9.02553,2.59052 -18.7401,2.75722 -6.510133,0.1117 -9.872833,0.008 -11.944243,-0.36777 z"
       id="path5434" />
    <path
       style="fill:#ffffff;stroke-width:0.297316"
       d="m 62.182054,128.07247 c -1.289902,-0.0976 -2.542078,-0.35032 -2.782639,-0.56171 -0.370161,-0.32528 -0.458546,-2.05016 -0.575179,-11.22414 -0.07575,-5.96189 -0.219737,-10.92625 -0.31989,-11.0319 -0.338477,-0.35708 -3.521059,1.35984 -10.060066,5.42714 -1.044424,0.64965 -1.988835,1.18118 -2.09866,1.18118 -0.109836,0 -0.194299,-1.95821 -0.187675,-4.35157 l 0.012,-4.35156 2.810302,-2.28245 C 58.736401,92.95382 76.41568,76.85385 86.38232,66.81654 c 1.35327,-1.36288 4.21903,-4.24588 6.36836,-6.40669 2.14932,-2.1608 5.08021,-5.16296 6.5131,-6.67147 5.36089,-5.64382 8.86826,-9.05737 9.30638,-9.05737 0.65727,0 1.38558,0.69911 10.95658,10.51727 9.97934,10.23705 12.17121,12.43703 17.38785,17.45219 8.50937,8.18075 14.76497,13.89641 22.11651,20.20766 2.79078,2.39587 5.59521,4.80744 6.23205,5.35905 0.63682,0.5516 2.29767,1.93513 3.69075,3.07451 l 2.53287,2.0716 -0.0254,2.79935 c -0.0139,1.53964 -0.11164,3.45126 -0.2171,4.24806 l -0.19175,1.4487 -2.46051,-1.46467 c -5.78485,-3.44359 -8.95503,-5.2499 -9.21378,-5.2499 -0.15225,0 -0.35587,0.21736 -0.45252,0.48303 -0.0966,0.26567 -0.17571,5.18309 -0.17571,10.92759 V 127 l -0.94078,0.60023 c -0.89622,0.57182 -1.52408,0.60022 -13.25694,0.59961 -10.87869,-6.4e-4 -12.39994,-0.0585 -13.03382,-0.49669 -0.88665,-0.61287 -4.74187,-4.67222 -6.7781,-7.13699 -5.57814,-6.75211 -10.52099,-17.30262 -14.77598,-31.53922 -0.56628,-1.89471 -1.14194,-3.37167 -1.27925,-3.28215 -0.13731,0.0895 -0.99309,2.60166 -1.90174,5.58253 -3.51569,11.53344 -8.18873,21.54141 -13.0167,27.87709 -2.179,2.85946 -5.25415,6.26925 -7.04911,7.81617 l -1.54626,1.33258 -10.32205,-0.0516 c -5.67713,-0.0284 -11.37741,-0.13148 -12.667302,-0.22902 z"
       id="path6019" />
    <path
       style="fill:#ffffff;stroke-width:0.297316"
       d="m 102.40359,161.62307 c -1.38467,-0.44266 -1.54767,-1.36239 -1.54767,-8.73295 v -6.51995 h -6.52626 -6.52625 l -0.72875,-0.76877 -0.72872,-0.76877 0.0906,-5.48124 c 0.0789,-4.77271 0.15733,-5.55163 0.60692,-6.02578 0.45982,-0.48492 1.24256,-0.55463 7.14939,-0.63673 l 6.63304,-0.0922 0.0874,-6.99984 c 0.11184,-8.95955 -0.30014,-8.34211 5.66883,-8.4957 4.74316,-0.12204 6.49765,0.19064 7.07798,1.26143 0.25678,0.47378 0.39563,2.7095 0.46302,7.45549 l 0.0963,6.77876 6.62416,0.0922 c 5.90227,0.0821 6.68043,0.15154 7.14051,0.63743 0.45834,0.48406 0.51634,1.18166 0.51634,6.21078 0,7.44863 0.70493,6.833 -7.8241,6.833 h -6.45732 l -0.0961,7.01558 c -0.12395,9.0525 0.35954,8.38245 -6.11007,8.46744 -2.58304,0.034 -5.10719,-0.0697 -5.60925,-0.23011 z"
       id="path6058" />
    <path
       style="fill:#ffffff;stroke-width:0.297316"
       d="m 35.254357,128.46449 c -0.338434,-0.0791 -0.898484,-0.46181 -1.244547,-0.85042 -0.624554,-0.70132 -0.628574,-0.78481 -0.542555,-11.25091 0.102984,-12.52189 -0.08915,-11.82908 3.280282,-11.82908 1.590708,0 2.185738,0.12066 2.487992,0.50453 0.316346,0.40173 0.414814,2.69324 0.48325,11.24726 0.0992,12.40382 0.180672,11.99014 -2.401725,12.2031 -0.79604,0.0657 -1.724252,0.0547 -2.062697,-0.0245 z"
       id="path6097" />
    <path
       style="fill:#ffffff;stroke-width:0.297316"
       d="m 176.94449,128.4579 c -0.42127,-0.0766 -1.00746,-0.42125 -1.30262,-0.76602 -0.50091,-0.58507 -0.53666,-1.33477 -0.53666,-11.2496 0,-12.61478 -0.18894,-11.9082 3.18417,-11.9082 3.35961,0 3.16809,-0.69543 3.27024,11.87438 l 0.086,10.58961 -0.68137,0.6753 c -0.69978,0.6935 -2.54203,1.05304 -4.01982,0.78453 z"
       id="path6136" />
    <ellipse
       style="fill:#ffffff;stroke-width:0.250713"
       id="path6357"
       cx="87.767029"
       cy="144.94049"
       rx="1.4185972"
       ry="1.4400477" />
  </g>
</svg>
