<?xml version="1.0" encoding="UTF-8" standalone="no"?>
<!-- Created with Inkscape (http://www.inkscape.org/) -->

<svg
   width="210mm"
   height="297mm"
   viewBox="0 0 210 297"
   version="1.1"
   id="svg5"
   sodipodi:docname="PinIconDarkGrey.svg"
   inkscape:version="1.1 (c68e22c387, 2021-05-23)"
   xmlns:inkscape="http://www.inkscape.org/namespaces/inkscape"
   xmlns:sodipodi="http://sodipodi.sourceforge.net/DTD/sodipodi-0.dtd"
   xmlns="http://www.w3.org/2000/svg"
   xmlns:svg="http://www.w3.org/2000/svg">
  <sodipodi:namedview
     id="namedview7"
     pagecolor="#ffffff"
     bordercolor="#666666"
     borderopacity="1.0"
     inkscape:pageshadow="2"
     inkscape:pageopacity="0.0"
     inkscape:pagecheckerboard="0"
     inkscape:document-units="mm"
     showgrid="true"
     inkscape:zoom="0.37059484"
     inkscape:cx="-356.18413"
     inkscape:cy="228.01181"
     inkscape:window-width="1920"
     inkscape:window-height="1017"
     inkscape:window-x="1912"
     inkscape:window-y="-8"
     inkscape:window-maximized="1"
     inkscape:current-layer="layer1">
    <inkscape:grid
       type="xygrid"
       id="grid895" />
  </sodipodi:namedview>
  <defs
     id="defs2" />
  <g
     inkscape:label="Layer 1"
     inkscape:groupmode="layer"
     id="layer1">
    <path
       style="fill:#4d4d4d;stroke-width:0.356971"
       d="m 105.62299,289.77604 c -0.78534,-0.36246 -1.7624,-1.04164 -2.17125,-1.50929 C 102.16564,286.79569 21.180953,145.21837 18.837557,140.34437 9.3319667,120.57379 7.5019767,96.516177 13.895557,75.375612 22.212697,47.874738 43.14868,25.353387 70.639814,14.334422 82.74983,9.4804997 94.168757,7.2902677 107.58633,7.2478177 c 7.85181,-0.02484 12.53756,0.395938 19.68122,1.767369 33.42112,6.4161413 61.54969,30.0454213 73.04704,61.3628293 1.75509,4.780637 3.72053,12.497112 4.59162,18.027041 0.81564,5.1779 0.92726,19.866823 0.18852,24.809503 -1.57656,10.54831 -4.55723,20.27969 -8.80619,28.75068 -2.0459,4.07884 -82.35388,144.23101 -83.62231,145.9363 -0.95972,1.29027 -3.27738,2.53352 -4.72293,2.53352 -0.49084,0 -1.53498,-0.29657 -2.32031,-0.65902 z m 10.79368,-141.60937 c 18.61833,-2.84653 34.51153,-17.03314 39.17709,-34.97032 4.13923,-15.913633 -0.20689,-32.1015 -11.83873,-44.095393 -6.95251,-7.168919 -15.58811,-11.891869 -25.81654,-14.119486 -4.32612,-0.942176 -15.66426,-0.942176 -19.990382,0 -7.068953,1.539523 -13.79183,4.472805 -19.37176,8.452151 -3.853865,2.748396 -9.522259,8.571106 -12.010099,12.33705 -15.588017,23.596255 -7.028913,54.749198 18.610985,67.739188 9.512239,4.81921 19.975436,6.37894 31.239436,4.65681 z"
       id="path5079" />
    <ellipse
       style="fill:#4d4d4d;stroke-width:0.264583"
       id="path2985"
       cx="105.83333"
       cy="103.1875"
       rx="58.208332"
       ry="55.5625" />
    <g
       id="g3194"
       transform="matrix(2.8321048,0,0,2.9708022,39.844481,85.959704)"
       style="fill:#ffffff">
      <path
         d="m 14.5,24 c -0.333,0 -0.646,-0.166 -0.832,-0.445 L 11.965,21 H 10 C 9.448,21 9,20.552 9,20 9,19.448 9.448,19 10,19 h 2.5 c 0.334,0 0.646,0.167 0.832,0.445 l 1.044,1.566 2.229,-4.459 c 0.164,-0.326 0.491,-0.538 0.856,-0.552 0.388,-0.009 0.708,0.172 0.896,0.484 L 21.066,21 H 23 c 0.552,0 1,0.448 1,1 0,0.552 -0.448,1 -1,1 h -2.5 c -0.351,0 -0.677,-0.184 -0.857,-0.485 l -2.063,-3.438 -2.185,4.371 c -0.16,0.319 -0.477,0.529 -0.833,0.551 C 14.542,24 14.521,24 14.5,24 Z"
         id="path3180"
         style="fill:#ffffff" />
      <circle
         cx="9"
         cy="5"
         r="5"
         id="circle3182"
         style="fill:#ffffff" />
      <path
         d="m 7,20 c 0,-1.654 1.346,-3 3,-3 h 2.5 c 0.519,0 1.019,0.133 1.458,0.377 l 0.859,-1.719 c 0.437,-0.871 1.269,-1.442 2.214,-1.594 C 16.121,12.819 14.661,12 13,12 H 5 c -2.761,0 -5,2.239 -5,5 v 3.25 C 0,20.664 0.336,21 0.75,21 H 7.184 C 7.072,20.686 7,20.352 7,20 Z"
         id="path3184"
         style="fill:#ffffff" />
    </g>
  </g>
</svg>
