<?xml version="1.0" encoding="UTF-8" standalone="no"?>
<!-- Created with Inkscape (http://www.inkscape.org/) -->

<svg
   width="210mm"
   height="297mm"
   viewBox="0 0 210 297"
   version="1.1"
   id="svg5"
   inkscape:version="1.1 (c68e22c387, 2021-05-23)"
   sodipodi:docname="PinFieldHospital.svg"
   xmlns:inkscape="http://www.inkscape.org/namespaces/inkscape"
   xmlns:sodipodi="http://sodipodi.sourceforge.net/DTD/sodipodi-0.dtd"
   xmlns="http://www.w3.org/2000/svg"
   xmlns:svg="http://www.w3.org/2000/svg">
  <sodipodi:namedview
     id="namedview7"
     pagecolor="#ffffff"
     bordercolor="#666666"
     borderopacity="1.0"
     inkscape:pageshadow="2"
     inkscape:pageopacity="0.0"
     inkscape:pagecheckerboard="0"
     inkscape:document-units="mm"
     showgrid="false"
     inkscape:zoom="0.5"
     inkscape:cx="330"
     inkscape:cy="533"
     inkscape:window-width="1920"
     inkscape:window-height="1017"
     inkscape:window-x="-8"
     inkscape:window-y="-8"
     inkscape:window-maximized="1"
     inkscape:current-layer="layer1" />
  <defs
     id="defs2" />
  <g
     inkscape:label="Layer 1"
     inkscape:groupmode="layer"
     id="layer1">
    <g
       inkscape:label="Layer 1"
       id="layer1-1"
       transform="translate(-2.0753107,-1.2168659)">
      <path
         style="fill:#d35f5f;stroke-width:0.356971"
         d="m 105.62299,289.77604 c -0.78534,-0.36246 -1.7624,-1.04164 -2.17125,-1.50929 C 102.16564,286.79569 21.180953,145.21837 18.837557,140.34437 9.3319667,120.57379 7.5019767,96.516177 13.895557,75.375612 22.212697,47.874738 43.14868,25.353387 70.639814,14.334422 82.74983,9.4804997 94.168757,7.2902677 107.58633,7.2478177 c 7.85181,-0.02484 12.53756,0.395938 19.68122,1.767369 33.42112,6.4161413 61.54969,30.0454213 73.04704,61.3628293 1.75509,4.780637 3.72053,12.497112 4.59162,18.027041 0.81564,5.1779 0.92726,19.866823 0.18852,24.809503 -1.57656,10.54831 -4.55723,20.27969 -8.80619,28.75068 -2.0459,4.07884 -82.35388,144.23101 -83.62231,145.9363 -0.95972,1.29027 -3.27738,2.53352 -4.72293,2.53352 -0.49084,0 -1.53498,-0.29657 -2.32031,-0.65902 z m 10.79368,-141.60937 c 18.61833,-2.84653 34.51153,-17.03314 39.17709,-34.97032 4.13923,-15.913633 -0.20689,-32.1015 -11.83873,-44.095393 -6.95251,-7.168919 -15.58811,-11.891869 -25.81654,-14.119486 -4.32612,-0.942176 -15.66426,-0.942176 -19.990382,0 -7.068953,1.539523 -13.79183,4.472805 -19.37176,8.452151 -3.853865,2.748396 -9.522259,8.571106 -12.010099,12.33705 -15.588017,23.596255 -7.028913,54.749198 18.610985,67.739188 9.512239,4.81921 19.975436,6.37894 31.239436,4.65681 z"
         id="path5079" />
      <path
         style="fill:#d35f5f;stroke-width:0.356971"
         d="m 98.67289,164.00853 c -6.5782,-1.1539 -13.98317,-4.21189 -19.72836,-8.14713 -3.5807,-2.45264 -9.05338,-7.77727 -11.53262,-11.22064 -4.11343,-5.71305 -7.100288,-12.74997 -8.273826,-19.49281 -0.707237,-4.06358 -0.705072,-11.28996 0.0046,-15.3471 1.096735,-6.27 3.406676,-12.09919 6.931906,-17.49286 2.25053,-3.44334 8.16051,-9.61512 11.83272,-12.35688 4.47867,-3.34389 10.90944,-6.36802 17.62554,-8.2886 2.63975,-0.75488 3.54433,-0.81665 11.95853,-0.81665 8.9854,0 9.14879,0.0133 12.67248,1.03506 9.55617,2.77089 16.72646,7.04962 23.23241,13.8635 8.95309,9.37685 13.36951,20.7825 12.8913,33.29254 -0.46922,12.27476 -4.92673,22.3705 -13.7991,31.25333 -6.76897,6.77696 -14.34275,10.96714 -23.93098,13.23978 -4.06519,0.96356 -15.54448,1.23976 -19.88459,0.47846 z"
         id="path5395" />
      <path
         style="fill:#d35f5f;stroke-width:0.399774"
         d="m 93.763807,148.16667 c -3.99978,-0.7259 -9.93841,-2.66032 -14.37921,-4.6838 -10.89365,-4.96375 -20.06501,-13.51002 -25.535768,-23.79535 -3.697769,-6.95199 -5.18482,-13.17236 -5.18482,-21.68818 0,-10.6802 2.563236,-18.88165 8.588537,-27.48029 2.386601,-3.40588 11.341251,-11.94142 14.863711,-14.16803 3.89271,-2.46065 10.10053,-5.24882 15.80467,-7.09848 l 5.01914,-1.62754 h 11.738303 11.7383 l 4.73651,1.49857 c 10.07401,3.18729 16.68946,6.98632 23.69685,13.60828 8.6264,8.15194 13.81884,17.61246 15.45589,28.16035 0.83173,5.35907 0.30227,13.99389 -1.19495,19.48852 -4.31468,15.83425 -17.91579,29.72326 -34.66282,35.3965 -6.58867,2.23198 -9.02553,2.59052 -18.7401,2.75722 -6.510133,0.1117 -9.872833,0.008 -11.944243,-0.36777 z"
         id="path5434" />
      <path
         style="fill:#ffffff;stroke-width:0.297316"
         d="m 62.182054,128.07247 c -1.289902,-0.0976 -2.542078,-0.35032 -2.782639,-0.56171 -0.370161,-0.32528 -0.458546,-2.05016 -0.575179,-11.22414 -0.07575,-5.96189 -0.219737,-10.92625 -0.31989,-11.0319 -0.338477,-0.35708 -3.521059,1.35984 -10.060066,5.42714 -1.044424,0.64965 -1.988835,1.18118 -2.09866,1.18118 -0.109836,0 -0.194299,-1.95821 -0.187675,-4.35157 l 0.012,-4.35156 2.810302,-2.28245 C 58.736401,92.95382 76.41568,76.85385 86.38232,66.81654 c 1.35327,-1.36288 4.21903,-4.24588 6.36836,-6.40669 2.14932,-2.1608 5.08021,-5.16296 6.5131,-6.67147 5.36089,-5.64382 8.86826,-9.05737 9.30638,-9.05737 0.65727,0 1.38558,0.69911 10.95658,10.51727 9.97934,10.23705 12.17121,12.43703 17.38785,17.45219 8.50937,8.18075 14.76497,13.89641 22.11651,20.20766 2.79078,2.39587 5.59521,4.80744 6.23205,5.35905 0.63682,0.5516 2.29767,1.93513 3.69075,3.07451 l 2.53287,2.0716 -0.0254,2.79935 c -0.0139,1.53964 -0.11164,3.45126 -0.2171,4.24806 l -0.19175,1.4487 -2.46051,-1.46467 c -5.78485,-3.44359 -8.95503,-5.2499 -9.21378,-5.2499 -0.15225,0 -0.35587,0.21736 -0.45252,0.48303 -0.0966,0.26567 -0.17571,5.18309 -0.17571,10.92759 V 127 l -0.94078,0.60023 c -0.89622,0.57182 -1.52408,0.60022 -13.25694,0.59961 -10.87869,-6.4e-4 -12.39994,-0.0585 -13.03382,-0.49669 -0.88665,-0.61287 -4.74187,-4.67222 -6.7781,-7.13699 -5.57814,-6.75211 -10.52099,-17.30262 -14.77598,-31.53922 -0.56628,-1.89471 -1.14194,-3.37167 -1.27925,-3.28215 -0.13731,0.0895 -0.99309,2.60166 -1.90174,5.58253 -3.51569,11.53344 -8.18873,21.54141 -13.0167,27.87709 -2.179,2.85946 -5.25415,6.26925 -7.04911,7.81617 l -1.54626,1.33258 -10.32205,-0.0516 c -5.67713,-0.0284 -11.37741,-0.13148 -12.667302,-0.22902 z"
         id="path6019" />
      <path
         style="fill:#ffffff;stroke-width:0.297316"
         d="m 102.40359,161.62307 c -1.38467,-0.44266 -1.54767,-1.36239 -1.54767,-8.73295 v -6.51995 h -6.52626 -6.52625 l -0.72875,-0.76877 -0.72872,-0.76877 0.0906,-5.48124 c 0.0789,-4.77271 0.15733,-5.55163 0.60692,-6.02578 0.45982,-0.48492 1.24256,-0.55463 7.14939,-0.63673 l 6.63304,-0.0922 0.0874,-6.99984 c 0.11184,-8.95955 -0.30014,-8.34211 5.66883,-8.4957 4.74316,-0.12204 6.49765,0.19064 7.07798,1.26143 0.25678,0.47378 0.39563,2.7095 0.46302,7.45549 l 0.0963,6.77876 6.62416,0.0922 c 5.90227,0.0821 6.68043,0.15154 7.14051,0.63743 0.45834,0.48406 0.51634,1.18166 0.51634,6.21078 0,7.44863 0.70493,6.833 -7.8241,6.833 h -6.45732 l -0.0961,7.01558 c -0.12395,9.0525 0.35954,8.38245 -6.11007,8.46744 -2.58304,0.034 -5.10719,-0.0697 -5.60925,-0.23011 z"
         id="path6058" />
      <path
         style="fill:#ffffff;stroke-width:0.297316"
         d="m 35.254357,128.46449 c -0.338434,-0.0791 -0.898484,-0.46181 -1.244547,-0.85042 -0.624554,-0.70132 -0.628574,-0.78481 -0.542555,-11.25091 0.102984,-12.52189 -0.08915,-11.82908 3.280282,-11.82908 1.590708,0 2.185738,0.12066 2.487992,0.50453 0.316346,0.40173 0.414814,2.69324 0.48325,11.24726 0.0992,12.40382 0.180672,11.99014 -2.401725,12.2031 -0.79604,0.0657 -1.724252,0.0547 -2.062697,-0.0245 z"
         id="path6097" />
      <path
         style="fill:#ffffff;stroke-width:0.297316"
         d="m 176.94449,128.4579 c -0.42127,-0.0766 -1.00746,-0.42125 -1.30262,-0.76602 -0.50091,-0.58507 -0.53666,-1.33477 -0.53666,-11.2496 0,-12.61478 -0.18894,-11.9082 3.18417,-11.9082 3.35961,0 3.16809,-0.69543 3.27024,11.87438 l 0.086,10.58961 -0.68137,0.6753 c -0.69978,0.6935 -2.54203,1.05304 -4.01982,0.78453 z"
         id="path6136" />
      <ellipse
         style="fill:#ffffff;stroke-width:0.250713"
         id="path6357"
         cx="87.767029"
         cy="144.94049"
         rx="1.4185972"
         ry="1.4400477" />
    </g>
    <path
       style="fill:#aa0000;fill-opacity:1;stroke-width:0.0843239"
       d="m 390.50396,607.6724 c -6.36998,-0.18964 -9.71822,-0.41045 -11.35256,-0.74867 -0.72687,-0.15042 -1.72853,-0.57056 -2.3505,-0.9859 -2.33309,-1.55798 -3.22908,-4.87902 -3.62493,-13.43598 -0.18584,-4.01736 -0.25217,-11.05728 -0.25284,-26.83608 l -7.1e-4,-16.46424 h -24.41176 -24.41177 v -0.43447 -0.43447 l 0.99081,0.0591 c 2.5329,0.15108 10.78535,0.21313 28.75444,0.21623 l 19.4999,0.003 v 1.13588 c 0,2.66408 0.42582,34.90444 0.50622,38.3277 0.15673,6.67331 0.38619,9.87234 0.89805,12.52052 0.56602,2.92841 1.53708,4.52999 3.23355,5.33316 1.52074,0.71997 2.57941,0.86497 8.76968,1.20118 1.69281,0.0919 4.15928,0.21192 5.48106,0.26662 3.20605,0.13269 11.28725,0.13432 13.53398,0.003 6.5424,-0.38316 10.48017,-1.16737 12.84064,-2.55722 0.69788,-0.41091 1.60884,-1.36031 1.97357,-2.05684 1.03343,-1.97357 1.27138,-4.89717 1.88004,-23.10039 0.37868,-11.32494 0.55155,-18.29501 0.62225,-25.0888 0.0332,-3.19444 0.0819,-5.82947 0.10801,-5.85563 0.0262,-0.0262 6.55142,-0.12156 14.50059,-0.21201 24.67177,-0.28071 28.73078,-0.36156 31.95025,-0.63635 2.6476,-0.22598 3.71505,-0.5576 4.53756,-1.40968 0.66505,-0.68895 0.94312,-1.06925 1.24861,-1.70762 0.77815,-1.62608 1.00242,-4.01969 1.10019,-11.7421 l 0.0558,-4.40593 h 0.35247 0.35246 l 0.0551,1.32811 c 0.11639,2.80627 0.0122,8.26542 -0.19815,10.37803 -0.58792,5.90594 -2.60463,7.90546 -8.64238,8.56871 -2.50188,0.27483 -4.51093,0.29909 -24.81231,0.29964 l -20.34314,5.5e-4 -8.4e-4,0.18973 c 0,0.10435 -0.075,5.48316 -0.16581,11.95291 -0.0908,6.46975 -0.20477,15.25419 -0.25326,19.52098 -0.0987,8.68427 -0.19819,12.58956 -0.38555,15.13614 -0.36697,4.98792 -1.14542,7.55543 -2.77398,9.14914 -1.61865,1.58404 -3.72647,2.16328 -8.73195,2.39959 -1.65867,0.0783 -18.61804,0.17939 -20.53287,0.12238 z"
       id="path12713"
       transform="scale(0.26458333)" />
    <path
       style="fill:#d35f5f;fill-opacity:1"
       d="m 383.35945,606.32364 c -8.13179,-0.74348 -8.26011,-1.13011 -9.02045,-27.17857 -0.36354,-12.45479 -0.70104,-24.55757 -0.75,-26.89507 L 373.5,548 h -25.87756 c -21.69745,0 -26.07717,-0.24053 -27.11332,-1.48901 -0.89804,-1.08207 -1.19781,-6.753 -1.09688,-20.75 0.15724,-21.80588 0.57782,-25.41772 3.11807,-26.77721 0.98866,-0.52912 12.81314,-1.26243 26.27663,-1.62959 l 24.47906,-0.66755 0.64156,-23.59332 c 0.35285,-12.97633 0.8761,-25.08092 1.16277,-26.8991 0.94734,-6.00836 2.73248,-6.82955 16.51606,-7.59764 14.98584,-0.83509 25.33472,0.4002 28.31463,3.37975 1.94805,1.94782 2.13673,3.73615 2.99596,28.39615 l 0.91698,26.31743 24.41908,0.66592 c 13.4305,0.36626 25.24778,1.10942 26.26062,1.65148 2.50641,1.34139 3.4301,9.49853 2.59265,22.89582 -0.97003,15.51835 -2.01449,22.9049 -3.44058,24.33231 -0.93127,0.93211 -7.78281,1.35336 -26.06208,1.60234 l -24.79868,0.33777 -0.69973,24.52345 c -0.38485,13.48789 -0.96363,25.84295 -1.28618,27.45568 -0.98992,4.94964 -4.88708,6.21115 -19.81906,6.41541 -7.15,0.0978 -15.08825,-0.0131 -17.64055,-0.24645 z"
       id="path16118"
       transform="scale(0.26458333)" />
    <path
       style="fill:#d35f5f;fill-opacity:1;stroke-width:0.264583"
       id="path16264"
       d="m 96.638463,147.11559 c 0.05372,0.51259 0.209418,1.00529 0.319723,1.5067 0.113622,0.51647 0.116946,0.58599 0.207597,1.13589 0.17575,1.29223 0.22266,2.59702 0.255146,3.89927 0.01701,0.60627 -0.0492,1.21078 -0.04581,1.81664 0.0074,1.3143 0.01408,-0.53056 0.0067,0.77809 -0.02854,0.68329 0.06574,1.36227 0.07707,2.04517 0.0069,0.41764 -0.0076,0.92009 -0.01662,1.33953 -0.04189,0.65776 -0.01722,1.31209 0.04166,1.96737 0.01,0.11117 0.0095,0.22407 0.03266,0.33325 0.02692,0.12672 0.07791,0.2471 0.116864,0.37064 0.211105,0.43716 0.376496,1.02148 0.87889,1.2179 0.275045,0.10753 0.405659,0.0498 0.67609,0.004 0.103899,-0.0431 0.210412,-0.0804 0.3117,-0.12939 0.496181,-0.2398 0.108215,-0.10963 0.691627,-0.36881 0.47168,-0.20954 0.97062,-0.33359 1.46762,-0.46479 1.60531,-0.42186 2.54856,-1.24555 4.21115,-2.25442 0.0983,-0.0597 0.24736,-0.29603 0.24299,-0.41976 -0.004,-0.10144 -0.0633,-0.19288 -0.0949,-0.28932 -0.0907,-0.0816 -0.16753,-0.18206 -0.27225,-0.24466 -0.45612,-0.27268 -1.04993,-0.1877 -1.54416,-0.13591 -0.43826,0.0459 -0.74824,0.0999 -1.17857,0.16761 -1.57369,0.4898 -1.73784,0.49546 -3.842515,2.33005 -0.145265,0.12662 0.174251,0.35556 0.32032,0.48125 0.250896,0.2159 0.871645,0.38264 1.179135,0.44068 0.20352,0.0384 0.41163,0.0464 0.61744,0.0696 0.68009,0.008 1.36237,-0.10802 1.98798,-0.38033 0.13798,-0.0601 0.26956,-0.13393 0.40582,-0.19779 0.17423,-0.0817 0.35038,-0.15915 0.52558,-0.23872 0.85816,-0.31788 1.71962,-0.6819 2.62797,-0.83525 0.2102,-0.0355 0.4232,-0.0515 0.6348,-0.0773 0.93986,-0.11438 1.90107,0.10451 2.83592,-0.0728 0.14984,-0.0284 0.2934,-0.0834 0.4401,-0.12506 1.1819,-0.72033 2.40658,-1.37476 3.54571,-2.16098 0.13729,-0.0948 0.17378,-0.28749 0.22954,-0.44471 0.29219,-0.82383 0.0809,-1.89064 -0.0583,-2.72322 -0.30462,-1.56463 -0.59865,-3.1315 -0.88141,-4.70023 -0.24036,-1.10772 -0.45752,-2.22074 -0.5926,-3.34655 -0.0774,-0.74323 -0.12312,-1.49093 -0.0851,-2.23761 0.0262,-0.18548 0.013,-0.41363 0.18296,-0.54919 0.0673,-0.0537 0.31685,-0.13029 0.24393,-0.0846 -0.97742,0.61269 -2.00072,1.15193 -2.96259,1.78875 -0.10776,0.0713 0.25164,-0.0608 0.37964,-0.0787 0.12734,-0.0178 0.25647,-0.0186 0.3847,-0.0279 0.18958,0.006 0.37961,0.003 0.56873,0.0173 0.24807,0.0188 0.49474,0.053 0.74182,0.082 1.00616,0.11803 2.00736,0.2643 3.0078,0.42278 0.19187,0.0137 0.3834,0.0485 0.5756,0.0409 0.49312,-0.0195 1.13434,-0.16936 1.60431,-0.27409 0.95602,-0.21304 1.90746,-0.44908 2.86096,-0.67311 1.44035,-0.35222 2.89633,-0.62358 4.37417,-0.75626 0.91012,-0.0817 1.32591,-0.0826 2.2039,-0.10873 1.79179,-0.0218 1.73334,-0.36533 3.98987,-2.30074 0.10731,-0.092 -0.12021,-0.25592 -0.17928,-0.38437 -0.0634,-0.13784 -0.12539,-0.27633 -0.18809,-0.41449 -0.0733,-0.15925 -0.14654,-0.31849 -0.21981,-0.47774 -0.36388,-0.88466 -0.63075,-1.80452 -0.9445,-2.70738 -0.63541,-1.76165 -1.09245,-0.76031 -3.89818,1.23026 -0.19994,0.14185 0.0339,0.48957 0.0325,0.7347 -0.004,0.79448 -0.0455,0.90675 -0.15347,1.66946 -0.85108,1.40955 -0.51071,0.70423 2.74845,-1.48404 0.0455,-0.0305 -0.11558,0.0247 -0.16423,-2.7e-4 -0.083,-0.0428 -0.14818,-0.11663 -0.20537,-0.19042 -0.21135,-0.27267 -0.25276,-0.47625 -0.37415,-0.80585 -0.0424,-0.1819 -0.0921,-0.36226 -0.12728,-0.54571 -0.10615,-0.55387 -0.1467,-1.12229 -0.19329,-1.68327 -0.0791,-0.95329 -0.0504,-0.55517 -0.102,-1.5811 -0.0645,-0.94839 -0.0493,-1.89946 -0.01,-2.84839 0.0183,-0.43784 0.0605,-0.87476 0.0679,-1.31292 0.002,-0.1385 -0.008,-0.27692 -0.0124,-0.41538 -0.0771,-0.10791 -0.12279,-0.24743 -0.23125,-0.32373 -0.35487,-0.24962 -0.87597,-0.15683 -1.25227,-0.13513 -0.37045,0.0213 -0.7398,0.0587 -1.10979,0.0869 -1.92813,0.14698 -1.11704,0.0917 -3.24578,0.19787 -3.33235,0.10269 -6.66659,-0.006 -9.98628,-0.3033 -0.46838,-0.0495 -1.22709,-0.10087 -1.70637,-0.24556 -0.24802,-0.0749 -0.54729,-0.18008 -0.58649,-0.48374 -0.0366,-0.28364 0.19001,-0.54101 0.31941,-0.7509 0.45893,-0.68719 1.05963,-1.22998 1.49853,-1.93274 0.31152,-0.49881 0.2878,-0.50587 0.51617,-1.05389 0.0691,-0.19151 0.13777,-0.38315 0.20722,-0.57452 0.12198,-0.33609 0.27312,-0.76883 0.42373,-1.09616 0.23766,-0.51654 0.54104,-1.00253 0.83523,-1.48767 0.24085,-0.4307 0.50483,-0.8829 0.7048,-1.33302 0.30518,-0.68695 0.45763,-1.1945 0.68867,-1.91403 0.29761,-0.92687 0.27743,-0.87739 0.53656,-1.76032 0.12324,-0.57186 0.32499,-1.17377 -0.23448,-1.60092 -0.47353,-0.36154 -1.40203,-0.3947 -1.96572,-0.46245 -1.36914,-0.14032 -2.71004,-0.44256 -4.0325,-0.81379 -0.52117,-0.16521 -1.03095,-0.36715 -1.5586,-0.51213 -0.11366,-0.0312 -0.2269,-0.0664 -0.34336,-0.0846 -0.1286,-0.0201 -0.25955,-0.0201 -0.38933,-0.0302 -0.13759,0.0166 -0.27672,0.0235 -0.41278,0.0499 -0.53263,0.10338 -1.04882,0.31066 -1.56557,0.46981 -0.30142,0.0928 -0.74583,0.21705 -1.05342,0.30422 -1.6992,0.46104 -2.73803,1.27345 -4.470701,2.33235 -0.145039,0.0886 -0.457041,0.54194 -0.53598,0.6834 -0.0761,0.13637 -0.130807,0.28363 -0.196209,0.42545 -0.361088,0.82846 -0.535604,1.72426 -0.66997,2.61367 -0.09691,1.01277 -0.08718,2.0316 -0.0999,3.04764 -0.0031,0.24485 -0.0351,1.79726 -0.04003,2.03999 -0.05768,1.06619 -0.04098,2.1384 -0.151225,3.20145 -0.05065,0.48841 -0.07599,0.58065 -0.161126,1.05537 -0.144339,0.68493 -0.342784,1.3672 -0.711309,1.96888 -0.230992,0.37713 -0.330523,0.45999 -0.618829,0.78166 -0.981082,0.87474 -2.897605,2.05123 2.223879,-1.17641 0.145002,-0.0914 -0.311565,0.14691 -0.476774,0.19255 -0.618204,0.17076 -0.87372,0.13903 -1.528268,0.16345 -1.686475,-0.0299 -3.322034,-0.477 -4.950462,-0.87238 -1.006581,-0.20957 -1.990014,-0.50996 -2.987472,-0.75528 -0.733512,-0.18904 -1.471509,-0.0957 -2.189432,0.10527 -1.184584,0.71103 -2.434706,1.32281 -3.553753,2.13308 -0.165513,0.11984 -0.149847,0.38191 -0.194916,0.58122 -0.0677,0.2994 -0.105045,0.60512 -0.142246,0.90982 -0.110132,0.90204 -0.137178,1.42687 -0.123399,2.34665 0.0061,0.40848 0.03629,0.81623 0.05443,1.22435 0.07719,1.06219 0.278191,2.1097 0.52229,3.14461 0.108252,0.45896 0.217125,0.88165 0.379897,1.32255 0.06158,0.16681 0.138234,0.32766 0.207351,0.49149 0.151479,0.42692 0.454324,0.76743 0.67914,1.15218 0.108371,0.18547 0.111348,0.2243 0.182632,0.426 0.05841,0.24794 0.06709,0.25683 0.100181,0.52063 0.01341,0.10702 0.0075,0.21697 0.03212,0.32199 0.08561,0.36561 0.217829,0.67633 0.586335,0.8721 0.31481,0.16725 0.67994,0.21446 1.019908,0.32169 1.320962,0.20439 2.67194,0.19574 3.990303,-0.0323 0.911627,-0.15766 1.522579,-0.38349 2.401591,-0.65344 0.41478,-0.12739 0.8303,-0.25234 1.24545,-0.3785 1.658876,-0.47204 3.386378,-0.63048 5.105947,-0.55079 0.944245,0.0438 0.740482,-0.17465 0.987203,0.36923 -0.103407,0.27593 -0.16759,0.52006 -0.389366,0.74186 -0.123854,0.12387 -0.585859,0.38407 -0.436258,0.29296 0.890352,-0.54227 1.815568,-1.03377 2.658878,-1.64663 0.13504,-0.0981 -0.32847,0.0677 -0.49528,0.0743 -0.15364,0.006 -0.30654,-0.0246 -0.459814,-0.0369 -0.125505,-0.0347 -0.253616,-0.0611 -0.376518,-0.10411 -0.746789,-0.26144 -0.162877,-0.16567 -1.206291,-0.43511 -0.851522,-0.21988 -1.577811,-0.31877 -2.458479,-0.3936 -0.425786,-0.0362 -0.853477,-0.0446 -1.280216,-0.0669 -0.923628,-0.0245 -1.847871,-0.0129 -2.770947,0.0244 -0.219096,0.009 -0.802774,0.0467 -1.040796,0.0398 -0.158131,-0.005 -0.315299,-0.0263 -0.472948,-0.0394 -0.840968,-0.1252 -1.493306,-0.62587 -2.12734,-1.14994 -0.04224,-0.035 -0.177033,-0.1268 -0.12673,-0.10494 0.07173,0.0312 0.120179,0.16262 0.192833,0.13367 0.11602,-0.0462 0.158134,-0.19418 0.224507,-0.29997 0.130098,-0.20737 0.252638,-0.41985 0.363895,-0.63791 0.487249,-0.95497 0.423508,-0.91427 0.771067,-1.99246 0.258424,-1.2188 0.274217,-2.46032 0.207788,-3.69854 -0.02024,-0.37732 -0.04102,-0.75524 -0.08802,-1.13017 -0.05247,-0.41857 -0.307994,-1.71235 -0.392126,-2.14961 -0.129426,-0.74418 -0.305919,-1.47875 -0.451503,-2.21968 -0.01384,-0.0704 -0.153562,-0.70953 -0.106458,-0.84687 0.0264,-0.077 0.127373,-0.10142 0.191058,-0.15213 -0.98021,0.62409 -2.024219,1.15777 -2.940629,1.87225 -0.144767,0.11287 0.36776,-0.0249 0.550629,-0.009 0.321114,0.0281 0.638633,0.0885 0.956726,0.1407 1.114636,0.18272 2.222296,0.40963 3.332083,0.61913 0.646718,0.0987 0.929732,0.17506 1.568989,0.15468 0.799426,-0.0255 1.584873,-0.25817 2.357713,-0.44239 1.632336,-0.38343 1.905691,-0.78287 4.001773,-2.23426 0.0662,-0.0458 -0.04734,-0.15457 -0.05908,-0.23424 -0.0019,-0.0131 0.03063,-0.0416 0.01945,-0.0346 -1.096851,0.69253 -2.186966,1.39568 -3.28045,2.09352 1.926278,-0.59714 2.284937,-0.89417 4.688504,-2.60546 0.30984,-0.22059 0.48569,-0.58623 0.70739,-0.89527 0.74675,-1.04099 0.6979,-1.06644 1.2608,-2.2239 0.0994,-0.44027 0.23121,-0.87446 0.29823,-1.32081 0.12617,-0.84032 0.11279,-1.72057 0.0753,-2.56629 -0.0418,-0.94299 -0.17155,-1.86208 -0.33103,-2.79042 -0.14063,-0.68552 -0.35853,-1.35355 -0.49385,-2.04022 -0.0639,-0.32414 -0.0753,-0.46899 -0.11487,-0.79609 -0.033,-0.5134 -0.0425,-1.03297 0.0467,-1.54193 0.0271,-0.15483 0.11264,-0.4738 0.15268,-0.62875 0.0285,-0.0915 0.0336,-0.1938 0.0854,-0.27444 0.0448,-0.0698 0.12807,-0.10548 0.1921,-0.15822 -1.001,0.6108 -2.01115,1.20685 -3.003011,1.8324 -0.08059,0.0508 0.173228,-0.0822 0.265512,-0.10589 0.221451,-0.0569 0.278892,-0.0262 0.492368,0.008 0.240741,0.10183 0.249921,0.0852 0.465631,0.27561 0.24562,0.21678 0.42991,0.49713 0.67588,0.71352 0.94436,0.83079 1.51423,1.12777 2.64702,1.86551 2.07314,1.20348 4.19187,2.34546 6.17327,3.70038 1.0108,0.69121 1.76311,1.2372 2.54854,2.15881 0.24788,0.29087 0.43231,0.63033 0.64846,0.94549 0.33429,0.68098 0.5198,1.3644 0.37678,2.12042 -0.13106,0.69278 -0.47039,1.35105 -0.75702,1.98709 -0.36546,0.74296 -0.68901,1.50521 -1.00976,2.26816 -0.10933,0.26007 -0.19934,0.529 -0.32634,0.78092 -0.097,0.19237 -0.53588,0.64427 -0.34338,0.54754 1.06107,-0.53315 2.01243,-1.26118 3.01864,-1.89177 -0.0359,-0.0816 -0.083,-0.1592 -0.1077,-0.24488 -0.25999,-0.90202 -0.31573,-1.83982 -0.38517,-2.77109 -0.05,-0.67021 -0.0889,-1.34121 -0.13475,-2.01171 -1.21475,1.12069 0.34119,-1.37624 0.0394,-1.14316 -1.09161,0.84315 -2.40385,1.52317 -3.15011,2.68317 -0.3047,0.47364 0.26802,1.09502 0.36231,1.65025 0.23913,1.40809 0.31016,2.62162 0.42916,4.04321 0.15181,2.00736 0.12751,4.02103 0.19893,6.03128 0.0172,0.48568 0.0829,1.82873 0.10631,2.31776 0.10755,2.11595 0.12831,4.23569 0.13886,6.35407 -0.005,0.24711 -0.0161,1.09864 -0.0473,1.38975 -0.14922,1.39118 -2.43972,2.69832 3.26326,-1.66945 0.1197,-0.0917 -0.14653,-0.26431 -0.2039,-0.40374 -0.0962,-0.2338 -0.17063,-0.47596 -0.25595,-0.71394 -0.73727,-2.6895 -0.81965,-5.49866 -1.00405,-8.26529 -0.0637,-1.48507 -0.10061,-2.07138 -0.119,-3.53442 -0.006,-0.47393 -0.0367,-0.94943 0.001,-1.4219 0.0185,-0.23127 0.35866,-0.80571 0.16641,-0.67584 -3.73896,2.52569 -3.32383,1.62733 -2.45498,4.66973 0.57308,3.1206 0.50586,2.48729 0.89412,5.73009 0.31154,2.60198 0.41241,3.60166 0.55263,6.19864 0.12178,2.2554 0.10762,2.96081 0.1317,5.15155 -0.007,1.74359 -0.17157,3.48239 -0.57572,5.17992 -0.0827,0.34739 -0.15616,0.70052 -0.29219,1.0307 -0.0866,0.21016 -0.57132,0.67669 -0.36874,0.5736 1.02161,-0.51988 1.92897,-1.23891 2.89346,-1.85837 -0.0724,-0.0419 -0.16116,-0.0635 -0.21708,-0.12566 -0.24277,-0.26982 -0.31314,-0.5591 -0.4752,-0.8747 -0.0552,-0.10752 -0.0998,-0.22673 -0.18637,-0.31102 -0.0749,-0.0729 -0.18737,-0.19183 -0.27944,-0.14232 -1.20275,0.64672 -2.31937,1.44218 -3.47906,2.16328 -0.005,0.0132 -0.22054,0.53142 -0.22071,0.57726 -2.6e-4,0.0913 0.0104,0.29578 0.0933,0.25753 1.27126,-0.58656 2.5155,-1.24388 3.69138,-2.00378 0.18635,-0.12043 0.21245,-0.3896 0.3159,-0.58589 0.16039,-0.30431 0.31707,-0.61056 0.4756,-0.91585 0.73614,-1.32994 1.37388,-2.71752 2.23463,-3.9762 0.37344,-0.54609 0.77046,-1.07728 1.19542,-1.58431 1.18216,-1.41045 1.90731,-2.01975 3.25655,-3.29672 2.59118,-2.30397 5.34792,-4.40936 8.06899,-6.55507 0.2266,-0.18134 0.4525,-0.36355 0.67978,-0.54403 0.173,-0.13736 0.34312,-0.27856 0.52104,-0.40948 0.0892,-0.0657 0.18641,-0.11979 0.27961,-0.17969 -1.26858,0.57939 -2.5718,1.08829 -3.80576,1.73819 -0.18875,0.0994 -0.27262,0.32843 -0.41675,0.48571 -0.17809,0.19434 -0.36633,0.37912 -0.54949,0.56868 -1.9638,1.4105 1.50266,-0.80252 2.13606,-1.36064 0.11169,-0.0984 -0.24185,-0.18289 -0.32483,-0.30648 -0.40495,-0.60318 -0.49802,-1.34717 -0.59988,-2.04448 0.008,-0.14837 0.15849,-0.50511 0.0226,-0.44511 -1.17845,0.52026 -2.30968,1.16489 -3.35577,1.91662 -0.11324,0.0814 0.10805,0.25846 0.14016,0.39416 0.15171,0.64103 0.18153,1.29298 0.20879,1.94759 0.004,0.0726 -0.0538,0.25114 0.0108,0.21788 1.19849,-0.61633 2.4066,-1.23597 3.50024,-2.02349 0.12517,-0.0901 -0.0307,-0.30703 -0.0516,-0.45984 -0.0595,-0.43366 -0.12822,-0.94944 -0.31562,-1.34856 -0.13899,-0.29603 -0.34318,-0.55682 -0.51477,-0.83523 -0.36284,-0.34091 -0.71022,-0.69907 -1.08853,-1.02273 -1.93069,-1.65179 -1.23289,-0.8252 -3.1852,-2.63537 -1.04045,-0.96469 -1.95987,-1.95526 -2.82321,-3.08027 -0.38311,-0.49923 -0.71901,-1.03299 -1.07851,-1.54948 -1.12406,-1.76854 -1.91414,-3.71237 -2.46991,-5.7271 -0.18402,-0.66715 -0.35092,-1.45703 -0.50173,-2.13798 -0.17991,-0.72919 -0.22036,-1.01329 -0.50768,-1.70631 -0.11083,-0.26733 -0.24596,-0.52403 -0.3769,-0.78211 -0.0787,-0.15502 -0.54379,-1.02992 -0.68217,-1.20979 -0.0823,-0.10697 -0.20067,-0.18054 -0.30101,-0.2708 -1.16684,0.79613 -2.5401,1.35258 -3.50052,2.38842 -0.29105,0.31389 0.0642,0.85373 0.0988,1.28039 0.15817,1.94883 0.30723,3.89817 0.4606,5.84738 0.008,0.24346 -0.007,0.4889 0.025,0.7304 0.18468,1.39386 2.70416,-1.18835 3.60779,-1.89373 0.15332,-0.11967 0.0293,-0.38791 0.048,-0.5815 0.2602,-2.69578 -0.11855,1.45009 0.13973,-1.41059 0,0 -3.21295,1.59286 -3.21295,1.59286 v 0 c -0.0585,0.44905 -0.11139,0.97192 -0.22775,1.4129 -0.0519,0.19675 -0.3939,0.63829 -0.19994,0.57678 1.13528,-0.36007 2.14543,-1.03517 3.22579,-1.53647 0.0686,-0.0318 -0.13498,0.18081 -0.18809,0.12694 -0.14786,-0.14995 -0.17078,-0.385 -0.25617,-0.5775 -0.0734,-0.3697 -0.15795,-0.73736 -0.22012,-1.10912 -0.14846,-0.88784 -0.30101,-2.09428 -0.32539,-2.98118 -0.0152,-0.55165 -0.0225,-1.1067 0.0391,-1.65511 0.051,-0.45423 0.75391,-1.31997 0.2972,-1.33867 -1.07485,-0.044 -1.98948,0.81911 -2.98423,1.22866 0.50241,0.0308 0.30413,-0.0629 0.69799,0.49983 0.63802,0.91153 1.0244,1.94356 1.32502,3.00856 0.8788,2.69674 1.81273,5.37709 3.46976,7.71511 1.18099,1.55697 1.15782,1.60853 2.52875,3.06926 1.45765,1.55312 1.5562,1.52128 3.0531,3.01934 0.43851,0.43884 0.88369,0.87286 1.28879,1.34272 0.29654,0.34395 0.54137,0.7293 0.81205,1.09395 0.3275,0.71128 0.43539,0.77329 0.50689,1.51559 0.0198,0.20576 0.0148,0.41441 -0.006,0.62009 -0.0157,0.15669 -0.25115,0.51274 -0.10237,0.46117 4.24717,-1.47213 4.61036,-1.38235 3.28835,-1.62588 -0.0424,-0.13995 -0.0973,-0.27671 -0.12721,-0.41985 -0.12602,-0.60305 -0.1161,-0.85371 -0.11361,-1.49059 8e-4,-0.22929 0.2356,-0.76151 0.0186,-0.68762 -1.22158,0.41581 -2.33882,1.11467 -3.4057,1.84058 -0.113,0.0769 0.0853,0.25971 0.128,0.38957 0.10529,0.4678 0.22153,1.02191 0.36157,1.4772 0.0798,0.25952 0.14608,0.52722 0.27185,0.76786 0.11049,0.21141 0.19894,0.63635 0.42887,0.57286 2.67445,-0.73855 2.85909,-0.98991 4.17714,-2.15871 0.19779,-0.19742 0.39363,-0.39684 0.59339,-0.59229 0.19413,-0.18995 0.85328,-0.62298 0.58819,-0.56385 -1.1298,0.25199 -2.18978,0.75259 -3.27232,1.16253 -0.0412,0.0156 -0.0468,0.0759 -0.0786,0.10642 -0.31359,0.30095 -0.66626,0.55955 -0.97922,0.86102 -2.45302,2.07834 -4.93613,4.12227 -7.32458,6.27554 -1.40459,1.31554 -2.18436,1.97653 -3.44043,3.42034 -0.46698,0.53678 -0.90939,1.09583 -1.3262,1.67242 -0.9526,1.31775 -1.68972,2.7783 -2.58204,4.13479 -0.22453,0.32525 -0.4345,0.66104 -0.67359,0.97574 -0.16692,0.21973 -0.80479,0.71128 -0.54264,0.62515 1.12447,-0.36944 2.12465,-1.04725 3.2167,-1.5037 0.048,-0.0201 -0.0374,0.1822 0.008,0.15603 0.15335,-0.0892 -0.0103,-0.44858 0.25296,-0.46817 -1.04715,0.57215 -2.06882,1.19365 -3.14147,1.71647 -0.0765,0.0373 0.0186,-0.21347 0.10112,-0.23458 0.0895,-0.0229 0.17975,0.074 0.23385,0.14887 0.10612,0.14692 0.15128,0.32941 0.22961,0.49284 0.32383,0.67558 0.16085,0.40103 0.63079,0.99754 1.16142,-0.65838 2.38928,-1.21137 3.48427,-1.97515 0.15271,-0.10653 0.0973,-0.36014 0.12719,-0.54392 0.0523,-0.32172 0.0894,-0.64597 0.11915,-0.97055 0.1516,-1.6522 0.14808,-3.3147 0.0365,-4.96946 -0.067,-0.774 -0.12794,-1.54855 -0.2011,-2.322 -0.39792,-4.2068 -0.15729,-1.16318 -0.55544,-5.67276 -0.0941,-1.06606 -0.16584,-2.13404 -0.26322,-3.19981 -0.51012,-5.5825 -0.13524,-0.4881 -0.50121,-5.93828 0.0512,-3.00975 0.82956,-3.22707 -3.23935,-1.70394 -0.1622,0.0607 0.20394,0.29142 0.24004,0.4608 0.094,0.44109 0.10518,0.89596 0.14488,1.34519 0.13306,1.50579 0.13225,1.94497 0.19649,3.49235 0.0488,2.87008 0.0494,5.75928 0.51036,8.60028 0.0404,0.26802 0.0824,0.53579 0.12112,0.80405 0.0263,0.18227 -0.10142,0.60371 0.074,0.54751 1.22765,-0.39338 2.35922,-1.05006 3.48032,-1.68644 0.0741,-0.042 -0.0705,-0.15701 -0.0848,-0.24096 -0.0367,-0.21611 -0.092,-1.16335 -0.10197,-1.31556 -0.0937,-2.09789 -0.22347,-4.19417 -0.27496,-6.29381 -0.0607,-1.16668 -0.11313,-2.33854 -0.22527,-3.50173 -0.14892,-1.54471 -0.40019,-3.07906 -0.53094,-4.62589 -0.11757,-1.36002 -0.26019,-2.7536 -0.28833,-4.11965 -0.0127,-0.6177 0.61665,-1.65576 0.0312,-1.85323 -1.07526,-0.3627 -2.22859,0.44038 -3.32224,0.74313 -0.0716,0.0198 0.12264,0.0837 0.18396,0.12562 0.0396,0.26142 0.0791,0.52283 0.11863,0.78425 0.0356,0.31271 0.0776,0.62477 0.10691,0.93814 0.0548,0.58623 0.1096,1.52457 0.13766,2.10929 0.007,0.15124 0.0595,1.70956 0.0961,1.92602 0.0426,0.25202 0.14685,0.48964 0.22028,0.73446 1.15191,-0.63085 2.35865,-1.17055 3.45572,-1.89257 0.15541,-0.10227 0.13696,-0.34596 0.20732,-0.51818 0.42192,-1.03275 0.87957,-2.05037 1.36978,-3.05258 0.29808,-0.65609 0.69028,-1.4219 0.76228,-2.15051 0.0867,-0.87729 -0.27549,-1.49468 -0.75817,-2.19081 -0.88934,-0.93205 -0.9412,-1.07176 -2.09553,-1.86479 -0.53408,-0.36692 -1.09727,-0.68993 -1.65602,-1.01806 -2.03585,-1.19558 -4.18072,-2.23082 -5.993,-3.7729 -0.43517,-0.41742 -0.89935,-0.80657 -1.30551,-1.25226 -0.25697,-0.28199 -0.45824,-0.61029 -0.6768,-0.923 -0.27932,-0.39963 -0.4721,-0.7946 -0.85258,-1.11769 -0.0832,-0.0707 -0.1808,-0.12242 -0.27119,-0.18363 -0.20595,-0.0654 -0.39425,-0.1397 -0.61474,-0.14712 -0.1058,-0.004 -0.22315,-0.0172 -0.31575,0.0341 -0.81902,0.45383 -3.17618,0.97251 -3.648207,2.37398 -0.03088,0.0917 -0.04307,0.18862 -0.06461,0.28293 -0.04406,0.23396 -0.08423,0.42164 -0.108259,0.66067 -0.05359,0.53297 -0.02074,1.07223 0.01638,1.6048 0.06027,0.42373 0.128792,0.84247 0.258879,1.25185 0.162883,0.51258 0.404236,0.99908 0.538938,1.52155 0.06715,0.23687 0.143269,0.47137 0.201459,0.7106 0.333028,1.36913 0.525365,2.9628 0.271193,4.35671 -0.07868,0.43151 -0.235998,0.84491 -0.353997,1.26736 -0.516083,0.98463 -0.617524,1.30923 -1.342877,2.16627 -0.268573,0.31733 -1.281506,0.98384 -0.877353,0.88641 0.852639,-0.20553 1.551644,-0.8182 2.323354,-1.23499 0.13508,-0.0729 -0.26299,0.17183 -0.413237,0.20338 -0.07655,0.0161 -0.149431,-0.0463 -0.224147,-0.0695 -1.133567,0.71003 -2.277202,1.40422 -3.4007,2.13007 -0.01627,0.0105 0.03741,0.0581 0.01823,0.0552 -0.02469,-0.004 -0.06707,-0.0464 -0.04571,-0.0594 1.059235,-0.64325 2.136841,-1.25598 3.215738,-1.86568 0.08656,-0.0489 -0.146767,0.13878 -0.236316,0.18197 -0.134892,0.0651 -0.285006,0.0921 -0.427511,0.13821 -0.372642,0.10204 -0.72862,0.20051 -1.102984,0.29865 -0.442651,0.11604 -0.848611,0.23006 -1.305163,0.28721 -0.75519,0.0945 -0.87947,0.0468 -1.673082,-0.002 -0.353759,-0.0499 -0.70898,-0.0903 -1.061271,-0.1496 -0.790897,-0.13322 -1.422841,-0.27019 -2.189495,-0.49738 -0.272722,-0.0808 -0.538644,-0.18304 -0.807757,-0.27517 -0.180549,-0.0618 -0.367015,-0.26457 -0.541224,-0.18666 -1.255496,0.56149 -2.393151,1.35609 -3.589727,2.03413 -0.01463,0.11235 -0.05243,0.22407 -0.04386,0.33704 0.0096,0.12668 0.226222,0.74206 0.249579,0.81301 0.228521,0.69411 0.45353,1.38969 0.651994,2.09312 0.07894,0.33024 0.170723,0.65768 0.23681,0.99074 0.129347,0.65188 0.245541,1.53197 0.292796,2.19569 0.05486,0.77049 0.0772,1.61116 -0.02432,2.37932 -0.05382,0.40732 -0.165838,0.80481 -0.248756,1.20721 -0.420013,1.01573 -0.399502,1.11844 -0.996432,2.0025 -0.161951,0.23985 -0.35411,0.45785 -0.532106,0.68605 -0.124719,0.15989 -0.312578,0.28561 -0.376034,0.47821 -0.106261,0.32253 0.09007,0.34556 0.258342,0.40572 0.311423,0.16221 0.588825,0.36781 0.889691,0.5485 0.457393,0.27468 0.932759,0.52509 1.449313,0.66925 0.170887,0.0278 0.33982,0.0733 0.51266,0.0833 0.390477,0.0224 0.784539,-0.0629 1.167542,-0.11274 0.987288,-0.12845 1.979724,-0.22162 2.976378,-0.22653 0.420478,0.0153 0.842356,0.008 1.261438,0.0458 0.838335,0.0751 1.403437,0.17725 2.174118,0.48031 1.455891,0.5725 -0.04974,0.0863 1.071065,0.57464 0.141147,0.0615 0.294746,0.0891 0.442119,0.13366 0.172323,0.0262 0.343215,0.0648 0.516972,0.0785 1.72984,0.13679 2.121447,-0.73928 4.238887,-2.01163 0.27356,-0.16438 0.56604,-0.66961 0.62102,-0.96942 0.0368,-0.20061 -0.0162,-0.4076 -0.0243,-0.61141 -0.16609,-0.1333 -0.29319,-0.34251 -0.49829,-0.3999 -0.15361,-0.043 -2.12265,0.0186 -2.148561,0.0197 -1.359468,0.0575 -2.727475,0.14278 -4.047881,0.49781 -0.408705,0.11803 -0.81979,0.22811 -1.226119,0.35409 -0.913302,0.28315 -1.454065,0.52723 -2.396215,0.72393 -0.810739,0.16927 -1.767919,0.26815 -2.597057,0.21648 -0.381132,-0.0238 -0.754541,-0.11821 -1.131811,-0.17731 -0.246832,-0.0977 -0.514133,-0.15447 -0.740494,-0.29316 -0.39828,-0.24402 -0.348793,-0.67298 -0.389303,-1.06412 -0.03249,-0.31366 -0.04178,-0.30791 -0.115832,-0.60365 -0.08493,-0.22027 -0.106569,-0.30708 -0.231759,-0.509 -0.226888,-0.36595 -0.59095,-0.62965 -0.774785,-1.0269 -0.0793,-0.1474 -0.164057,-0.29198 -0.237895,-0.44219 -0.647038,-1.31627 -1.024339,-2.74513 -1.148897,-4.20562 -0.01566,-0.39946 -0.05169,-0.79865 -0.04695,-1.19839 0.0094,-0.79392 0.08322,-1.57907 0.296042,-2.34695 0.08741,-0.31538 0.199546,-0.62636 0.34767,-0.91819 0.09369,-0.18458 0.560451,-0.58153 0.371102,-0.4979 -1.035656,0.45742 -1.980623,1.09746 -2.970935,1.64619 0.09227,-0.0448 0.180661,-0.0986 0.276818,-0.13428 0.109231,-0.0405 0.223928,-0.0645 0.336815,-0.0932 0.493307,-0.12571 0.983641,-0.19909 1.488609,-0.0836 1.05048,0.18734 2.081691,0.46866 3.133272,0.65169 0.442082,0.085 1.075828,0.20549 1.510038,0.29488 1.168345,0.24053 2.333803,0.52623 3.528089,0.60501 0.437333,0.0247 1.00974,0.0775 1.456428,0.0308 0.164137,-0.0172 0.338368,-0.0275 0.483675,-0.10572 1.660535,-0.89408 3.030188,-1.3632 4.141224,-2.64854 0.248065,-0.34036 0.352451,-0.45918 0.554336,-0.84375 0.33958,-0.64688 0.538416,-1.35804 0.669246,-2.07327 0.0233,-0.17637 0.0556,-0.35179 0.07,-0.52911 0.0229,-0.28277 0.0173,-0.89868 0.0128,-1.16392 -0.0139,-0.82714 -0.0544,-1.65398 -0.0417,-2.48154 0.0376,-1.73389 0.0925,-3.4796 0.45231,-5.18244 0.16779,-0.85221 0.30047,-1.72661 0.71703,-2.50136 0.18593,-0.29336 0.2554,-0.44672 0.50661,-0.68251 0.0987,-0.0926 0.44028,-0.31284 0.32106,-0.2487 -0.96603,0.51972 -1.91052,1.0785 -2.865777,1.61776 0.138486,-0.061 0.273897,-0.12945 0.415452,-0.1829 0.158128,-0.0597 0.321625,-0.10409 0.482435,-0.15614 0.96211,-0.28845 1.92441,-0.57718 2.891,-0.84956 0.11181,-0.011 0.2232,-0.0381 0.33544,-0.033 0.115,0.005 0.22689,0.0395 0.33944,0.0636 0.55442,0.1191 1.09268,0.30436 1.63854,0.45547 0.1773,0.048 0.353,0.10251 0.53192,0.14411 0.25741,0.0599 1.03738,0.19791 1.27004,0.23917 0.78204,0.1387 1.56468,0.27421 2.3479,0.40608 0.0283,0.005 1.16891,0.18872 1.26833,0.21253 0.17535,0.042 0.53492,0.13348 0.64145,0.33587 0.14548,0.27641 0.0498,0.71021 0.0252,0.97682 -0.15115,0.70452 -0.18769,0.95806 -0.4247,1.67421 -0.39204,1.18458 -0.96141,2.26138 -1.66276,3.29014 -0.29992,0.50354 -0.59664,1.00938 -0.82366,1.55153 -0.14921,0.35634 -0.26113,0.72725 -0.40048,1.08756 -0.0722,0.18672 -0.14962,0.37137 -0.22444,0.55705 -0.24042,0.4842 -0.25375,0.55166 -0.55188,0.99526 -0.46189,0.68724 -1.05729,1.2747 -1.48448,1.98694 -0.17114,0.41153 -0.38314,0.67769 -0.20832,1.14087 0.16199,0.42918 0.52514,0.53479 0.93219,0.61763 0.57869,0.11776 1.37997,0.10125 1.94778,0.11203 1.54777,0.0367 3.09506,0.0863 4.643,0.11629 2.75849,0.0534 0.92602,0.0161 3.71307,0.0407 0.61313,0.005 1.2262,0.0155 1.8393,0.0232 2.935,0.0526 0.41358,0.0149 2.93726,0.035 0.31741,0.003 0.63479,0.008 0.95219,0.0123 0.2019,0.008 0.40368,0.02 0.60571,0.0232 0.0943,0.002 0.18991,-0.0257 0.28274,-0.009 0.0595,0.0106 0.10565,0.0586 0.15848,0.088 0.0275,0.11112 0.0653,0.22018 0.0825,0.33336 0.042,0.27733 0.0752,0.98845 0.0856,1.22772 0.0412,0.95032 0.0565,1.90218 0.0139,2.85286 -0.0105,0.76154 -0.0487,1.5276 0.0148,2.28789 0.0384,0.45988 0.0787,0.66667 0.16907,1.11667 0.0392,0.19517 0.0829,0.3894 0.12442,0.58409 0.13177,0.48149 0.2406,0.94701 0.59994,1.31787 0.0979,0.10103 0.19769,0.32923 0.32497,0.26929 3.51853,-1.65693 3.30253,-0.76751 3.49975,-2.46722 0.0377,-0.53668 0.0521,-1.14323 0.21853,-1.65929 0.0694,-0.21525 0.53391,-0.66873 0.31876,-0.59897 -7.12152,2.30908 -3.82291,0.57265 -3.15195,1.74568 0.0553,0.0967 0.0886,0.20437 0.13292,0.30656 0.38231,0.87463 0.68419,1.77977 1.02144,2.67231 0.0964,0.26357 0.24229,0.63348 0.30649,0.91388 0.0206,0.0899 -0.0507,0.31506 0.0323,0.27471 1.11299,-0.54166 2.13565,-1.2524 3.21643,-1.85576 0.3069,-0.17132 -1.67674,1.21834 -0.97191,0.40893 -1.137,0.10119 -1.14288,0.10522 -2.33998,0.19601 -0.46662,0.0354 -1.90508,0.12718 -2.41117,0.19974 -0.47276,0.0678 -1.37989,0.29696 -1.84161,0.40776 -0.92744,0.21609 -1.85445,0.43629 -2.78702,0.6295 -0.25214,0.0522 -1.13821,0.2313 -1.43603,0.2558 -0.193,0.0159 -0.38731,-2.7e-4 -0.58097,-5.3e-4 -1.42921,-0.11458 -2.85386,-0.28612 -4.24496,-0.64657 -0.0242,1.9e-4 -0.7702,0.003 -0.79699,0.0162 -1.23263,0.61128 -2.43799,1.27871 -3.62198,1.97957 -0.0872,0.0516 -0.1224,0.16456 -0.15952,0.25888 -0.0801,0.20357 -0.0639,0.42513 -0.0677,0.63689 0.003,0.77071 -0.0314,1.55023 0.1,2.31262 0.24511,1.08654 0.61883,2.14218 0.79357,3.24537 0.14561,0.75506 0.28462,1.51178 0.43645,2.26561 0.0755,0.37505 0.25687,1.1989 0.32532,1.56922 0.0511,0.2765 0.092,0.55479 0.13805,0.83219 0.0595,0.6901 0.15582,1.4196 -0.0266,2.10329 -0.0442,0.16567 -0.11128,0.32666 -0.1969,0.47522 -0.0751,0.1304 -0.41712,0.41725 -0.28074,0.3536 0.98598,-0.46014 1.91132,-1.04037 2.86699,-1.56056 -0.13771,0.0682 -0.26757,0.15526 -0.41312,0.20448 -0.32414,0.10962 -0.70218,0.12563 -1.03867,0.13344 -0.61138,0.0142 -1.22455,-0.0195 -1.83604,0.005 -0.50556,0.0151 -0.67346,-0.003 -1.15672,0.0951 -0.73701,0.14969 -1.42326,0.48559 -2.14064,0.70019 -0.16554,0.0596 -0.33497,0.10936 -0.49663,0.17881 -1.6961,0.72866 0.9116,-0.32532 -0.77757,0.41108 -0.49323,0.21502 -1.03092,0.33589 -1.56512,0.37887 -0.5347,-0.0173 -0.61291,0.0184 -1.12166,-0.14608 -0.1323,-0.0428 -0.25804,-0.10504 -0.38056,-0.17078 -0.0367,-0.0197 -0.056,-0.10214 -0.0933,-0.0834 -1.03211,0.518 -2.0302,1.10119 -3.042365,1.65715 -0.147588,0.0811 0.299024,-0.15492 0.448535,-0.23239 0.53869,-0.11108 0.61678,-0.13859 1.17183,-0.20554 0.24225,-0.0292 0.69392,-0.0784 0.95916,-0.0459 0.12438,0.0153 0.23834,0.0802 0.36114,0.10445 -0.099,0.13799 -0.39414,0.31437 -0.28551,0.25401 1.02054,-0.56706 2.03226,-1.14984 3.04839,-1.72476 -0.10652,0.0545 -0.20953,0.11641 -0.31955,0.16338 -0.13353,0.057 -0.27312,0.0986 -0.40968,0.1479 -0.76863,0.21312 -0.20073,0.0587 -0.99565,0.26654 -0.52784,0.13802 -0.972,0.26913 -1.40265,0.61947 -0.0972,0.049 -0.38665,0.20852 -0.50808,0.22014 -0.43195,0.0413 -0.61585,-0.60911 -0.73988,-0.90767 -0.17919,-0.82774 -0.29874,-1.66395 -0.28059,-2.51411 -0.009,-0.42544 -0.0227,-0.89901 -0.0153,-1.32319 0.0124,-0.70974 0.1059,-1.41578 0.081,-2.12587 -0.003,-0.52 -0.004,-0.25778 0.006,-0.78667 -5.3e-4,-0.58618 -0.0832,-1.16892 -0.094,-1.75489 -0.0417,-1.31191 -0.12861,-2.62047 -0.2797,-3.92469 -0.054,-0.6568 -0.0359,-0.60458 -0.13327,-1.21033 -0.0797,-0.49566 -0.22135,-0.99417 -0.0937,-1.49576 0,0 -3.51797,1.75251 -3.51797,1.75251 z" />
    <path
       style="fill:#aa0000;fill-opacity:1;stroke-width:0.286867"
       d="m 103.53198,163.2101 c -3.9018,-0.20233 -3.78498,0.071 -3.91609,-9.16233 l -0.10414,-7.3313 h -8.382637 c -8.357077,0 -8.384007,-0.002 -8.828558,-0.60534 -0.374204,-0.508 -0.410579,-1.56781 -0.226208,-6.59085 0.190122,-5.1796 0.291837,-6.04899 0.755435,-6.45693 0.477633,-0.42028 1.41095,-0.48151 8.605481,-0.56454 l 8.069737,-0.0932 0.10166,-7.30543 c 0.10709,-7.69581 0.19059,-8.16772 1.56167,-8.8356 0.94833,-0.46195 8.82791,-0.62999 10.99398,-0.23447 2.73365,0.49915 2.76633,0.56988 3.02689,6.54973 0.12388,2.84313 0.23574,6.21675 0.24854,7.49694 l 0.0233,2.32761 7.92087,0.0938 c 7.27388,0.0862 7.97347,0.13561 8.56454,0.60627 0.61663,0.49102 0.64362,0.75771 0.64362,6.35985 0,5.35476 -0.0491,5.90086 -0.5843,6.4825 -0.58337,0.63413 -0.59701,0.63526 -8.56451,0.71515 l -7.98024,0.0801 -0.0258,2.34135 c -0.0141,1.28774 -0.12059,4.6713 -0.23643,7.51903 -0.19708,4.84545 -0.25374,5.21565 -0.88326,5.76933 -0.99486,0.87505 -4.62885,1.1576 -10.78369,0.83844 z"
       id="path1001" />
  </g>
</svg>
