<?xml version="1.0" encoding="UTF-8" standalone="no"?>
<!-- Created with Inkscape (http://www.inkscape.org/) -->

<svg
   width="210mm"
   height="297mm"
   viewBox="0 0 210 297"
   version="1.1"
   id="svg5"
   sodipodi:docname="PinIconYellow.svg"
   inkscape:version="1.1 (c68e22c387, 2021-05-23)"
   xmlns:inkscape="http://www.inkscape.org/namespaces/inkscape"
   xmlns:sodipodi="http://sodipodi.sourceforge.net/DTD/sodipodi-0.dtd"
   xmlns="http://www.w3.org/2000/svg"
   xmlns:svg="http://www.w3.org/2000/svg">
  <sodipodi:namedview
     id="namedview7"
     pagecolor="#ffffff"
     bordercolor="#666666"
     borderopacity="1.0"
     inkscape:pageshadow="2"
     inkscape:pageopacity="0.0"
     inkscape:pagecheckerboard="0"
     inkscape:document-units="mm"
     showgrid="true"
     inkscape:zoom="0.37059484"
     inkscape:cx="-356.18413"
     inkscape:cy="228.01181"
     inkscape:window-width="1920"
     inkscape:window-height="1017"
     inkscape:window-x="1912"
     inkscape:window-y="-8"
     inkscape:window-maximized="1"
     inkscape:current-layer="layer1">
    <inkscape:grid
       type="xygrid"
       id="grid895" />
  </sodipodi:namedview>
  <defs
     id="defs2" />
  <g
     inkscape:label="Layer 1"
     inkscape:groupmode="layer"
     id="layer1">
    <path
       style="fill:#ffcc00;stroke-width:0.356971"
       d="m 105.62299,289.77604 c -0.78534,-0.36246 -1.7624,-1.04164 -2.17125,-1.50929 C 102.16564,286.79569 21.180953,145.21837 18.837557,140.34437 9.3319667,120.57379 7.5019767,96.516177 13.895557,75.375612 22.212697,47.874738 43.14868,25.353387 70.639814,14.334422 82.74983,9.4804997 94.168757,7.2902677 107.58633,7.2478177 c 7.85181,-0.02484 12.53756,0.395938 19.68122,1.767369 33.42112,6.4161413 61.54969,30.0454213 73.04704,61.3628293 1.75509,4.780637 3.72053,12.497112 4.59162,18.027041 0.81564,5.1779 0.92726,19.866823 0.18852,24.809503 -1.57656,10.54831 -4.55723,20.27969 -8.80619,28.75068 -2.0459,4.07884 -82.35388,144.23101 -83.62231,145.9363 -0.95972,1.29027 -3.27738,2.53352 -4.72293,2.53352 -0.49084,0 -1.53498,-0.29657 -2.32031,-0.65902 z m 10.79368,-141.60937 c 18.61833,-2.84653 34.51153,-17.03314 39.17709,-34.97032 4.13923,-15.913633 -0.20689,-32.1015 -11.83873,-44.095393 -6.95251,-7.168919 -15.58811,-11.891869 -25.81654,-14.119486 -4.32612,-0.942176 -15.66426,-0.942176 -19.990382,0 -7.068953,1.539523 -13.79183,4.472805 -19.37176,8.452151 -3.853865,2.748396 -9.522259,8.571106 -12.010099,12.33705 -15.588017,23.596255 -7.028913,54.749198 18.610985,67.739188 9.512239,4.81921 19.975436,6.37894 31.239436,4.65681 z"
       id="path5079" />
    <ellipse
       style="fill:#ffcc00;stroke-width:0.264583"
       id="path2985"
       cx="105.83333"
       cy="103.1875"
       rx="58.208332"
       ry="55.5625" />
    <g
       id="g3194"
       transform="matrix(2.8321048,0,0,2.9708022,39.844481,85.959704)"
       style="fill:#ffffff">
      <path
         d="m 14.5,24 c -0.333,0 -0.646,-0.166 -0.832,-0.445 L 11.965,21 H 10 C 9.448,21 9,20.552 9,20 9,19.448 9.448,19 10,19 h 2.5 c 0.334,0 0.646,0.167 0.832,0.445 l 1.044,1.566 2.229,-4.459 c 0.164,-0.326 0.491,-0.538 0.856,-0.552 0.388,-0.009 0.708,0.172 0.896,0.484 L 21.066,21 H 23 c 0.552,0 1,0.448 1,1 0,0.552 -0.448,1 -1,1 h -2.5 c -0.351,0 -0.677,-0.184 -0.857,-0.485 l -2.063,-3.438 -2.185,4.371 c -0.16,0.319 -0.477,0.529 -0.833,0.551 C 14.542,24 14.521,24 14.5,24 Z"
         id="path3180"
         style="fill:#ffffff" />
      <circle
         cx="9"
         cy="5"
         r="5"
         id="circle3182"
         style="fill:#ffffff" />
      <path
         d="m 7,20 c 0,-1.654 1.346,-3 3,-3 h 2.5 c 0.519,0 1.019,0.133 1.458,0.377 l 0.859,-1.719 c 0.437,-0.871 1.269,-1.442 2.214,-1.594 C 16.121,12.819 14.661,12 13,12 H 5 c -2.761,0 -5,2.239 -5,5 v 3.25 C 0,20.664 0.336,21 0.75,21 H 7.184 C 7.072,20.686 7,20.352 7,20 Z"
         id="path3184"
         style="fill:#ffffff" />
    </g>
    <path
       style="fill:#ffb400;stroke-width:2.69836;fill-opacity:1"
       d="M 395.80494,1090.8139 C 389.614,1085.4986 360.72143,1035.8476 198.08263,751.03425 72.929898,531.86658 66.802365,520.54508 56.874195,490.13095 40.100272,438.74545 35.504946,370.5509 45.434333,320.36366 67.433222,209.17211 142.69704,113.91949 247.28113,64.909727 c 30.89738,-14.479 65.53564,-25.552256 96.56127,-30.868974 33.20934,-5.690935 93.84845,-5.707869 127.22131,-0.03553 73.02266,12.411557 140.25573,46.184353 194.43231,97.668027 51.62635,49.06021 82.2407,101.25474 101.61388,173.24195 6.27121,23.30267 6.90479,30.42077 6.96499,78.25257 0.0634,50.47183 -0.27737,53.90885 -8.35767,84.26194 -4.63318,17.40413 -13.77186,42.90368 -20.30819,56.66566 -6.53633,13.76201 -69.9224,126.41288 -140.85793,250.33527 -172.10207,300.65766 -176.40917,308.03036 -184.03896,315.03406 -7.92879,7.2781 -17.21117,7.785 -24.7072,1.3492 z M 313.80448,591.49685 c 2.66296,-2.66296 8.95374,-14.19847 13.97947,-25.63447 5.02576,-11.43602 10.02804,-20.79273 11.11621,-20.79273 1.08817,0 6.38363,7.87715 11.7677,17.50475 5.38407,9.6276 12.33692,18.86823 15.45081,20.53474 7.70656,4.12443 37.00969,1.82704 40.1583,-3.14845 7.10728,-11.23097 0.66774,-19.53807 -16.51906,-21.30982 l -13.95495,-1.43858 -15.08847,-26.4385 c -14.25764,-24.9827 -15.53408,-26.39418 -23.18143,-25.63446 -7.30966,0.72621 -9.29009,3.2514 -20.46135,26.08957 l -12.36839,25.28554 -7.45188,-9.76994 c -7.28097,-9.54587 -7.87439,-9.76994 -25.87272,-9.76994 -20.63541,0 -25.40895,3.05371 -23.99875,15.35242 0.82509,7.19573 1.64401,7.6245 16.00827,8.38169 12.5349,0.66075 15.61773,1.82102 17.9238,6.74591 5.35428,11.43464 19.62359,28.884 23.62008,28.884 2.21684,0 6.20942,-2.1788 8.87236,-4.84173 z m -85.79267,-42.64949 c 0,-10.57435 1.39062,-13.80311 9.39058,-21.80306 l 9.39058,-9.39057 27.26738,0.73225 27.26737,0.73228 7.19047,-13.24905 c 4.13813,-7.62488 10.62681,-15.00301 15.28556,-17.38092 4.4523,-2.27251 8.56315,-4.39753 9.13521,-4.72222 3.35412,-1.90386 -9.33308,-14.51812 -19.60184,-19.48915 -11.45115,-5.54339 -15.18465,-5.81142 -70.07364,-5.03056 l -57.97805,0.8248 -11.45146,8.0951 c -17.58442,12.4305 -22.55323,24.50012 -23.64877,57.44467 -0.50776,15.26948 -0.24231,29.53708 0.58991,31.70579 1.2277,3.19934 8.65486,3.94312 39.37491,3.94312 h 37.86179 z m 41.27888,-115.35789 c 11.13919,-4.65425 24.66997,-20.03004 28.89659,-32.83683 1.8082,-5.47893 2.76951,-17.12488 2.13622,-25.87988 -2.23374,-30.88122 -26.52313,-52.4016 -56.81008,-50.33373 -56.16645,3.83481 -70.26939,82.07351 -19.54916,108.45261 9.96897,5.18475 33.60231,5.49646 45.32643,0.59783 z"
       id="path3334"
       transform="scale(0.26458333)" />
  </g>
</svg>
